<?xml version="1.0" encoding="UTF-8"?>
<svg xmlns="http://www.w3.org/2000/svg" xmlns:xlink="http://www.w3.org/1999/xlink" viewBox="0 0 15 11" width="15px" height="11px">
<g id="surface100365842">
<path style=" stroke:none;fill-rule:nonzero;fill:rgb(96.470588%,0%,0%);fill-opacity:1;" d="M 2.800781 1.601562 C 2.699219 1.601562 2.59375 1.640625 2.515625 1.71875 L 1.71875 2.515625 C 1.5625 2.671875 1.5625 2.925781 1.71875 3.082031 L 4.632812 6 L 1.71875 8.917969 C 1.5625 9.074219 1.5625 9.328125 1.71875 9.484375 L 2.515625 10.28125 C 2.671875 10.4375 2.925781 10.4375 3.082031 10.28125 L 6 7.367188 L 8.917969 10.28125 C 9.074219 10.4375 9.328125 10.4375 9.484375 10.28125 L 10.28125 9.484375 C 10.4375 9.328125 10.4375 9.074219 10.28125 8.917969 L 7.367188 6 L 10.28125 3.082031 C 10.4375 2.925781 10.4375 2.671875 10.28125 2.515625 L 9.484375 1.71875 C 9.328125 1.5625 9.074219 1.5625 8.917969 1.71875 L 6 4.632812 L 3.082031 1.71875 C 3.003906 1.640625 2.902344 1.601562 2.800781 1.601562 Z M 2.800781 1.601562 "/>
</g>
</svg>
