<svg width="210" height="65" viewBox="0 0 210 65" fill="none" xmlns="http://www.w3.org/2000/svg">
<path d="M71.0682 23.5348C72.6558 23.5348 74.0297 23.7903 75.1905 24.3014C76.3681 24.8124 77.2721 25.5378 77.9037 26.4776C78.5353 27.4173 78.8513 28.5301 78.8513 29.816C78.8513 31.0854 78.5353 32.1982 77.9037 33.1544C77.2721 34.0941 76.3681 34.8195 75.1905 35.3308C74.0297 35.8251 72.6558 36.0725 71.0682 36.0725H67.4588V40.8453H63.3118V23.5348H71.0682ZM70.8382 32.8082C72.0835 32.8082 73.0312 32.5527 73.6795 32.0416C74.3284 31.514 74.6524 30.7722 74.6524 29.816C74.6524 28.8433 74.3284 28.1014 73.6795 27.5904C73.0312 27.0628 72.0835 26.799 70.8382 26.799H67.4588V32.8082H70.8382Z" fill="#81818B"/>
<path d="M84.0651 29.2967C84.5423 28.6537 85.1828 28.1674 85.9845 27.8377C86.804 27.5079 87.7422 27.3431 88.8006 27.3431V30.9041C88.357 30.8711 88.0582 30.8547 87.9044 30.8547C86.7609 30.8547 85.8653 31.1679 85.2169 31.7944C84.568 32.4043 84.2436 33.3276 84.2436 34.5639V40.8454H80.2504V27.541H84.0651V29.2967Z" fill="#81818B"/>
<path d="M96.3238 41.0429C94.8733 41.0429 93.5676 40.7547 92.4073 40.1774C91.2639 39.5841 90.3677 38.7678 89.7193 37.7292C89.071 36.6906 88.7465 35.5118 88.7465 34.1931C88.7465 32.8742 89.071 31.6954 89.7193 30.6568C90.3677 29.6182 91.2639 28.8104 92.4073 28.2334C93.5676 27.6399 94.8733 27.3431 96.3238 27.3431C97.7744 27.3431 99.0717 27.6399 100.215 28.2334C101.359 28.8104 102.255 29.6182 102.904 30.6568C103.552 31.6954 103.876 32.8742 103.876 34.1931C103.876 35.5118 103.552 36.6906 102.904 37.7292C102.255 38.7678 101.359 39.5841 100.215 40.1774C99.0717 40.7547 97.7744 41.0429 96.3238 41.0429ZM96.3238 37.8776C97.3481 37.8776 98.1844 37.5482 98.8328 36.8885C99.4985 36.2127 99.8308 35.3143 99.8308 34.1931C99.8308 33.072 99.4985 32.1818 98.8328 31.5223C98.1844 30.8464 97.3481 30.5084 96.3238 30.5084C95.3001 30.5084 94.4554 30.8464 93.7897 31.5223C93.124 32.1818 92.7911 33.072 92.7911 34.1931C92.7911 35.3143 93.124 36.2127 93.7897 36.8885C94.4554 37.5482 95.3001 37.8776 96.3238 37.8776Z" fill="#81818B"/>
<path d="M121.983 23.5348V40.8453H118.578L109.643 30.3353V40.8453H105.547V23.5348H108.977L117.887 34.0447V23.5348H121.983Z" fill="#81818B"/>
<path d="M130.216 27.3431C132.349 27.3431 133.988 27.8377 135.131 28.8269C136.275 29.7996 136.846 31.2751 136.846 33.2534V40.8454H133.109V39.1883C132.358 40.4248 130.959 41.0429 128.911 41.0429C127.852 41.0429 126.93 40.8701 126.145 40.5238C125.378 40.1774 124.789 39.6996 124.379 39.0894C123.97 38.4795 123.765 37.7869 123.765 37.0122C123.765 35.7757 124.243 34.8031 125.198 34.0942C126.171 33.3853 127.665 33.0308 129.679 33.0308H132.853C132.853 32.19 132.589 31.5471 132.059 31.1019C131.53 30.6403 130.737 30.4095 129.679 30.4095C128.945 30.4095 128.219 30.5249 127.503 30.7557C126.803 30.9701 126.205 31.2668 125.71 31.646L124.277 28.9505C125.028 28.4394 125.923 28.0438 126.964 27.7635C128.023 27.4833 129.107 27.3431 130.216 27.3431ZM129.909 38.4466C130.592 38.4466 131.197 38.2982 131.726 38.0013C132.255 37.6879 132.631 37.2348 132.853 36.6411V35.2813H130.114C128.475 35.2813 127.656 35.8004 127.656 36.839C127.656 37.3338 127.852 37.7292 128.245 38.0261C128.654 38.3064 129.209 38.4466 129.909 38.4466Z" fill="#81818B"/>
<path d="M148.064 40.2021C147.672 40.4825 147.185 40.6969 146.605 40.8453C146.042 40.9768 145.444 41.0428 144.813 41.0428C143.175 41.0428 141.903 40.6392 140.999 39.8315C140.111 39.0234 139.667 37.8363 139.667 36.2704V30.8052H137.543V27.8377H139.667V24.5981H143.661V27.8377H147.091V30.8052H143.661V36.2209C143.661 36.7812 143.806 37.2183 144.096 37.5316C144.403 37.8281 144.83 37.9765 145.376 37.9765C146.008 37.9765 146.545 37.8116 146.989 37.4822L148.064 40.2021Z" fill="#81818B"/>
<path d="M162.902 27.541V40.8454H159.113V39.2626C158.584 39.8394 157.952 40.2847 157.218 40.598C156.484 40.8949 155.691 41.0429 154.837 41.0429C153.028 41.0429 151.595 40.5403 150.536 39.5347C149.478 38.5291 148.949 37.037 148.949 35.0588V27.541H152.943V34.4898C152.943 36.6329 153.873 37.7045 155.733 37.7045C156.689 37.7045 157.457 37.408 158.038 36.8143C158.617 36.2045 158.908 35.3061 158.908 34.119V27.541H162.902Z" fill="#81818B"/>
<path d="M169.136 29.2967C169.613 28.6537 170.254 28.1674 171.056 27.8377C171.875 27.5079 172.814 27.3431 173.872 27.3431V30.9041C173.428 30.8711 173.129 30.8547 172.976 30.8547C171.832 30.8547 170.936 31.1679 170.288 31.7944C169.639 32.4043 169.315 33.3276 169.315 34.5639V40.8454H165.321V27.541H169.136V29.2967Z" fill="#81818B"/>
<path d="M188.333 34.2427C188.333 34.2918 188.308 34.6381 188.256 35.2813H177.837C178.024 36.1055 178.468 36.7565 179.168 37.2348C179.868 37.7127 180.738 37.9518 181.779 37.9518C182.496 37.9518 183.127 37.8529 183.673 37.655C184.237 37.441 184.757 37.1111 185.235 36.6658L187.36 38.8915C186.063 40.3259 184.168 41.0429 181.676 41.0429C180.124 41.0429 178.75 40.7547 177.555 40.1774C176.36 39.5841 175.439 38.7678 174.79 37.7292C174.141 36.6906 173.818 35.5118 173.818 34.1931C173.818 32.8907 174.133 31.7202 174.765 30.6816C175.413 29.6264 176.292 28.8104 177.401 28.2334C178.528 27.6399 179.782 27.3431 181.165 27.3431C182.513 27.3431 183.733 27.6234 184.826 28.1839C185.918 28.7444 186.771 29.5522 187.386 30.6074C188.017 31.646 188.333 32.8577 188.333 34.2427ZM181.19 30.2611C180.286 30.2611 179.526 30.5084 178.912 31.003C178.297 31.4976 177.922 32.1736 177.785 33.0308H184.57C184.433 32.19 184.057 31.5223 183.443 31.0277C182.829 30.5167 182.078 30.2611 181.19 30.2611Z" fill="#81818B"/>
<path fill-rule="evenodd" clip-rule="evenodd" d="M40.568 13.8946C39.9595 13.5545 39.2093 13.5545 38.6008 13.8946C34.2788 16.3096 31.3637 20.8282 31.3637 26.0068C31.3637 26.7449 31.423 27.4695 31.537 28.1767C28.5618 27.2006 25.3403 27.5558 22.709 29.0204C22.0999 29.3594 21.7248 29.987 21.7254 30.6661C21.7285 34.2485 23.655 37.7399 27.1053 39.6641C28.798 40.6083 30.6456 41.0569 32.468 41.0577C32.1907 41.8167 32.0398 42.6331 32.0398 43.4837C32.0398 47.5086 35.4176 50.771 39.5841 50.771C43.7509 50.771 47.1284 47.5086 47.1284 43.4837C47.1284 42.631 46.9769 41.813 46.6986 41.0528C48.4123 41.0004 50.1384 40.551 51.7279 39.6641C55.1786 37.7399 57.1048 34.2485 57.1074 30.6662C57.1085 29.9872 56.7331 29.3596 56.1241 29.0205C53.5967 27.6136 50.5242 27.2305 47.6491 28.0677C47.752 27.3951 47.8049 26.707 47.8049 26.0068C47.8049 20.8282 44.8901 16.3096 40.568 13.8946ZM35.2925 26.0068C35.2925 22.644 36.9781 19.6597 39.5844 17.8021C42.1907 19.6597 43.8764 22.644 43.8764 26.0068C43.8764 29.3696 42.1907 32.3539 39.5844 34.2115C36.9781 32.3539 35.2925 29.3696 35.2925 26.0068ZM47.3315 32.3087C49.1456 31.297 51.2417 31.1793 53.0728 31.8195C52.7315 33.6714 51.5776 35.3659 49.7636 36.3776C47.9496 37.3894 45.8535 37.5069 44.0224 36.867C44.3638 35.0149 45.5175 33.3205 47.3315 32.3087ZM25.7605 31.8194C27.5915 31.1792 29.6876 31.2969 31.5016 32.3086C33.3158 33.3203 34.4693 35.0149 34.8109 36.8666C32.9798 37.5069 30.8838 37.3894 29.0697 36.3776C27.2556 35.3659 26.1021 33.6712 25.7605 31.8194ZM35.9685 43.4837C35.9685 41.5549 37.5873 39.991 39.5841 39.991C41.581 39.991 43.1998 41.5549 43.1998 43.4837C43.1998 45.4124 41.581 46.9763 39.5841 46.9763C37.5873 46.9763 35.9685 45.4124 35.9685 43.4837Z" fill="#81818B"/>
</svg>
