<svg width="210" height="65" viewBox="0 0 210 65" fill="none" xmlns="http://www.w3.org/2000/svg">
<path d="M29.6956 21.03C31.8498 19.0681 34.7749 17.923 37.7395 17.7805C38.7542 17.7805 39.7719 17.7863 40.7865 17.7776C40.7347 18.8153 40.7865 19.8557 40.756 20.8934C40.6128 23.2128 39.7139 25.4798 38.1996 27.2993C36.2313 29.7466 33.221 31.3887 30.0247 31.8131C28.6292 32.0281 27.2123 31.8915 25.8077 31.9293C25.8321 30.787 25.7559 29.642 25.8504 28.5026C26.1246 25.6775 27.5232 22.9715 29.6956 21.03Z" fill="#81818B"/>
<path d="M41.7261 17.7776C42.8139 17.7892 43.9016 17.7718 44.9924 17.7834C47.7072 17.9665 50.3855 18.9605 52.4298 20.6841C54.6845 22.5297 56.2296 25.1689 56.6255 27.9882C56.7992 29.296 56.6895 30.6185 56.7567 31.9322C55.8059 31.9293 54.8583 31.9264 53.9075 31.9322C51.5708 31.8712 49.2734 31.1504 47.3172 29.9355C46.4153 29.3193 45.489 28.6944 44.8126 27.8399C43.3288 26.2588 42.3203 24.2736 41.9394 22.181C41.6529 20.7277 41.7687 19.2454 41.7261 17.7776Z" fill="#81818B"/>
<path d="M25.8098 32.7634C26.7757 32.8157 27.7446 32.7198 28.7074 32.8215C32.8299 32.9058 36.8306 35.1147 38.9664 38.4776C40.1914 40.361 40.8495 42.5933 40.7642 44.8107C40.7611 45.5378 40.7733 46.2613 40.752 46.9853C39.2224 46.9412 37.6776 47.0603 36.1633 46.7784C32.7995 46.2382 29.7069 44.3283 27.8451 41.6021C26.4344 39.6198 25.7306 37.1987 25.8037 34.8067C25.8037 34.1236 25.8037 33.4435 25.8098 32.7634Z" fill="#81818B"/>
<path d="M51.6084 33.0714C53.266 32.7196 54.9748 32.7778 56.6601 32.7778L56.7336 32.8476C56.6968 34.3677 56.8218 35.9052 56.5021 37.4078C55.8285 40.7794 53.4886 43.7903 50.3409 45.4441C48.3817 46.4849 46.1331 46.9963 43.8936 46.9732C43.1776 46.9763 42.4585 46.9616 41.7425 46.9816C41.7425 45.7232 41.6876 44.4592 41.8369 43.2061C42.1843 40.1748 43.9028 37.3526 46.3738 35.446C47.9034 34.295 49.7011 33.4608 51.6084 33.0714Z" fill="#81818B"/>
<path d="M69.2417 41.3555C69.2417 41.8672 69.0559 42.3 68.6852 42.6544C68.334 42.9891 67.8904 43.1564 67.3544 43.1564C66.8383 43.1564 66.4052 42.9891 66.0545 42.6544C65.7038 42.3 65.5284 41.8672 65.5284 41.3555V23.1119C65.5284 22.6002 65.7038 22.1771 66.0545 21.8426C66.4256 21.4883 66.8798 21.3112 67.4163 21.3112C67.9523 21.3112 68.3855 21.4883 68.7157 21.8426C69.0664 22.1771 69.2417 22.6002 69.2417 23.1119V41.3555Z" fill="#81818B"/>
<path d="M84.1475 27.3628C84.6836 27.3628 85.1272 27.5399 85.4784 27.8941C85.8286 28.2287 86.0039 28.6518 86.0039 29.1635V36.6617C86.0039 38.7478 85.3955 40.4009 84.1785 41.6211C82.961 42.8413 81.2075 43.4512 78.917 43.4512C76.6274 43.4512 74.8734 42.8413 73.6565 41.6211C72.46 40.4009 71.8615 38.7478 71.8615 36.6617V29.1635C71.8615 28.6518 72.0368 28.2287 72.3875 27.8941C72.7382 27.5399 73.1819 27.3628 73.7184 27.3628C74.255 27.3628 74.6981 27.5399 75.0488 27.8941C75.4 28.2287 75.5753 28.6518 75.5753 29.1635V36.6617C75.5753 37.8622 75.8541 38.7576 76.4106 39.348C76.9676 39.9188 77.8034 40.2041 78.917 40.2041C80.0525 40.2041 80.8978 39.9188 81.4553 39.348C82.0118 38.7576 82.2906 37.8622 82.2906 36.6617V29.1635C82.2906 28.6518 82.466 28.2287 82.8167 27.8941C83.1674 27.5399 83.611 27.3628 84.1475 27.3628Z" fill="#81818B"/>
<path d="M97.1733 27.0676C98.8239 27.0676 100.041 27.4514 100.825 28.2189C101.609 28.9668 102.125 29.9409 102.372 31.1414L101.846 30.8757L102.094 30.4034C102.341 29.9507 102.723 29.4686 103.239 28.9569C103.755 28.4255 104.374 27.9828 105.096 27.6285C105.838 27.2545 106.664 27.0676 107.571 27.0676C109.057 27.0676 110.181 27.3727 110.945 27.9827C111.729 28.5928 112.265 29.4095 112.554 30.4329C112.843 31.4366 112.987 32.5584 112.987 33.7982V41.3554C112.987 41.8672 112.812 42.3 112.461 42.6544C112.11 42.989 111.667 43.1564 111.13 43.1564C110.594 43.1564 110.15 42.989 109.8 42.6544C109.449 42.3 109.274 41.8672 109.274 41.3554V33.7982C109.274 33.1488 109.191 32.5683 109.026 32.0565C108.861 31.5251 108.562 31.102 108.128 30.7871C107.695 30.4723 107.076 30.3148 106.272 30.3148C105.488 30.3148 104.817 30.4723 104.26 30.7871C103.703 31.102 103.28 31.5251 102.991 32.0565C102.723 32.5683 102.589 33.1488 102.589 33.7982V41.3554C102.589 41.8672 102.413 42.3 102.063 42.6544C101.712 42.989 101.268 43.1564 100.732 43.1564C100.196 43.1564 99.7521 42.989 99.4019 42.6544C99.0507 42.3 98.8754 41.8672 98.8754 41.3554V33.7982C98.8754 33.1488 98.7929 32.5683 98.6276 32.0565C98.4627 31.5251 98.1635 31.102 97.7303 30.7871C97.2972 30.4723 96.6777 30.3148 95.8734 30.3148C95.0896 30.3148 94.4192 30.4723 93.8616 30.7871C93.3051 31.102 92.882 31.5251 92.5932 32.0565C92.3249 32.5683 92.1911 33.1488 92.1911 33.7982V41.3554C92.1911 41.8672 92.0157 42.3 91.665 42.6544C91.3138 42.989 90.8707 43.1564 90.3341 43.1564C89.7976 43.1564 89.3545 42.989 89.0033 42.6544C88.6526 42.3 88.4772 41.8672 88.4772 41.3554V29.1635C88.4772 28.6519 88.6526 28.2287 89.0033 27.8942C89.3545 27.5399 89.7976 27.3628 90.3341 27.3628C90.8707 27.3628 91.3138 27.5399 91.665 27.8942C92.0157 28.2287 92.1911 28.6519 92.1911 29.1635V30.4329L91.7264 30.3444C91.9123 30.0098 92.1706 29.6555 92.5003 29.2816C92.8305 28.888 93.2327 28.5239 93.7073 28.1893C94.1819 27.8548 94.7079 27.5891 95.2854 27.3923C95.8634 27.1758 96.4929 27.0676 97.1733 27.0676Z" fill="#81818B"/>
<path d="M118.956 41.3555C118.956 41.8672 118.781 42.3 118.429 42.6544C118.079 42.989 117.636 43.1564 117.099 43.1564C116.563 43.1564 116.119 42.989 115.768 42.6544C115.418 42.3 115.243 41.8672 115.243 41.3555V29.1635C115.243 28.6519 115.418 28.2287 115.768 27.8942C116.119 27.5399 116.563 27.3628 117.099 27.3628C117.636 27.3628 118.079 27.5399 118.429 27.8942C118.781 28.2287 118.956 28.6519 118.956 29.1635V41.3555ZM117.068 25.444C116.367 25.444 115.872 25.3358 115.582 25.1193C115.294 24.9028 115.15 24.519 115.15 23.968V23.4071C115.15 22.8364 115.305 22.4526 115.613 22.2558C115.944 22.0393 116.439 21.931 117.099 21.931C117.822 21.931 118.327 22.0393 118.615 22.2558C118.905 22.4723 119.049 22.856 119.049 23.4071V23.968C119.049 24.5387 118.894 24.9323 118.584 25.1488C118.276 25.3456 117.77 25.444 117.068 25.444Z" fill="#81818B"/>
<path d="M130.076 27.0676C131.603 27.0676 132.758 27.3727 133.542 27.9827C134.347 28.5928 134.893 29.4095 135.182 30.4329C135.492 31.4366 135.646 32.5584 135.646 33.7982V41.3554C135.646 41.8672 135.471 42.3 135.12 42.6544C134.77 42.989 134.326 43.1564 133.789 43.1564C133.253 43.1564 132.81 42.989 132.459 42.6544C132.108 42.3 131.933 41.8672 131.933 41.3554V33.7982C131.933 33.1488 131.84 32.5683 131.655 32.0565C131.489 31.5251 131.18 31.102 130.726 30.7871C130.272 30.4723 129.622 30.3148 128.776 30.3148C127.951 30.3148 127.25 30.4723 126.672 30.7871C126.115 31.102 125.682 31.5251 125.372 32.0565C125.083 32.5683 124.938 33.1488 124.938 33.7982V41.3554C124.938 41.8672 124.764 42.3 124.413 42.6544C124.062 42.989 123.618 43.1564 123.082 43.1564C122.546 43.1564 122.102 42.989 121.752 42.6544C121.4 42.3 121.225 41.8672 121.225 41.3554V29.1635C121.225 28.6519 121.4 28.2287 121.752 27.8942C122.102 27.5399 122.546 27.3628 123.082 27.3628C123.618 27.3628 124.062 27.5399 124.413 27.8942C124.764 28.2287 124.938 28.6519 124.938 29.1635V30.4329L124.475 30.3444C124.661 30.0098 124.928 29.6555 125.279 29.2816C125.63 28.888 126.043 28.5239 126.517 28.1893C126.992 27.8548 127.528 27.5891 128.126 27.3923C128.725 27.1758 129.375 27.0676 130.076 27.0676Z" fill="#81818B"/>
<path d="M154.02 35.2742C154.02 36.888 153.638 38.3149 152.875 39.5547C152.132 40.7749 151.121 41.7294 149.842 42.4181C148.583 43.1072 147.17 43.4512 145.602 43.4512C144.034 43.4512 142.61 43.1072 141.332 42.4181C140.073 41.7294 139.063 40.7749 138.299 39.5547C137.556 38.3149 137.185 36.888 137.185 35.2742C137.185 33.6605 137.556 32.2435 138.299 31.0233C139.063 29.7835 140.073 28.8191 141.332 28.1303C142.61 27.4218 144.034 27.0676 145.602 27.0676C147.17 27.0676 148.583 27.4218 149.842 28.1303C151.121 28.8191 152.132 29.7835 152.875 31.0233C153.638 32.2435 154.02 33.6605 154.02 35.2742ZM150.306 35.2742C150.306 34.2706 150.09 33.4046 149.656 32.6765C149.243 31.9286 148.676 31.3481 147.954 30.9348C147.253 30.5215 146.469 30.3148 145.602 30.3148C144.736 30.3148 143.941 30.5215 143.219 30.9348C142.518 31.3481 141.95 31.9286 141.517 32.6765C141.105 33.4046 140.898 34.2706 140.898 35.2742C140.898 36.2583 141.105 37.1242 141.517 37.8721C141.95 38.6002 142.518 39.1709 143.219 39.5842C143.941 39.9975 144.736 40.2041 145.602 40.2041C146.469 40.2041 147.253 39.9975 147.954 39.5842C148.676 39.1709 149.243 38.6002 149.656 37.8721C150.09 37.1242 150.306 36.2583 150.306 35.2742Z" fill="#81818B"/>
<path d="M167.861 27.3628C168.397 27.3628 168.841 27.5399 169.192 27.8941C169.542 28.2287 169.718 28.6518 169.718 29.1635V36.6617C169.718 38.7478 169.109 40.4009 167.892 41.6211C166.674 42.8413 164.921 43.4512 162.631 43.4512C160.341 43.4512 158.587 42.8413 157.37 41.6211C156.173 40.4009 155.575 38.7478 155.575 36.6617V29.1635C155.575 28.6518 155.75 28.2287 156.101 27.8941C156.452 27.5399 156.895 27.3628 157.432 27.3628C157.968 27.3628 158.412 27.5399 158.763 27.8941C159.113 28.2287 159.289 28.6518 159.289 29.1635V36.6617C159.289 37.8622 159.567 38.7576 160.124 39.348C160.681 39.9188 161.517 40.2041 162.631 40.2041C163.765 40.2041 164.612 39.9188 165.168 39.348C165.726 38.7576 166.004 37.8622 166.004 36.6617V29.1635C166.004 28.6518 166.18 28.2287 166.53 27.8941C166.881 27.5399 167.325 27.3628 167.861 27.3628Z" fill="#81818B"/>
<path d="M171.231 40.706C171.025 40.4305 170.932 40.0762 170.953 39.6433C170.974 39.2103 171.242 38.8364 171.758 38.5215C172.088 38.3247 172.438 38.246 172.81 38.2854C173.181 38.305 173.542 38.4821 173.893 38.8167C174.492 39.3874 175.121 39.8302 175.781 40.1451C176.441 40.46 177.266 40.6174 178.256 40.6174C178.566 40.5977 178.906 40.5584 179.278 40.4993C179.649 40.4206 179.969 40.2632 180.237 40.027C180.525 39.7712 180.67 39.3874 180.67 38.8757C180.67 38.4428 180.515 38.0983 180.206 37.8425C179.897 37.5867 179.484 37.3702 178.968 37.1931C178.473 37.016 177.916 36.8487 177.297 36.6912C176.657 36.5141 175.997 36.3173 175.316 36.1008C174.656 35.8844 174.047 35.6089 173.49 35.2742C172.934 34.92 172.48 34.4575 172.129 33.8868C171.778 33.3161 171.603 32.5977 171.603 31.7318C171.603 30.7478 171.891 29.9114 172.469 29.2226C173.047 28.5338 173.79 28.0024 174.697 27.6285C175.626 27.2545 176.595 27.0676 177.606 27.0676C178.246 27.0676 178.916 27.1463 179.618 27.3038C180.319 27.4415 180.99 27.6777 181.63 28.0123C182.269 28.3271 182.806 28.7503 183.239 29.2816C183.465 29.5768 183.6 29.931 183.641 30.3444C183.682 30.7576 183.486 31.1315 183.053 31.4661C182.744 31.7023 182.383 31.8105 181.97 31.7908C181.558 31.7515 181.217 31.6138 180.949 31.3776C180.598 30.9446 180.124 30.6002 179.525 30.3444C178.947 30.0885 178.277 29.9606 177.514 29.9606C177.204 29.9606 176.864 30 176.492 30.0787C176.142 30.1377 175.832 30.2854 175.564 30.5215C175.296 30.738 175.162 31.0922 175.162 31.5842C175.162 32.0369 175.316 32.4009 175.626 32.6765C175.935 32.9323 176.348 33.1488 176.864 33.3259C177.4 33.4834 177.968 33.6408 178.566 33.7982C179.185 33.9557 179.814 34.1426 180.454 34.3591C181.094 34.5757 181.681 34.8609 182.218 35.2152C182.754 35.5695 183.187 36.0319 183.517 36.6027C183.848 37.1537 184.013 37.8622 184.013 38.7281C184.013 39.7318 183.703 40.588 183.084 41.2964C182.465 42.0049 181.691 42.546 180.763 42.9201C179.835 43.2745 178.885 43.4512 177.916 43.4512C176.699 43.4512 175.482 43.2548 174.264 42.861C173.047 42.4476 172.036 41.7294 171.231 40.706Z" fill="#81818B"/>
</svg>
