<svg width="210" height="65" viewBox="0 0 210 65" fill="none" xmlns="http://www.w3.org/2000/svg">
<path d="M75.7065 44.566C73.3498 44.566 71.2666 44.0911 69.4569 43.1423C67.6467 42.1715 66.2476 40.8017 65.2585 39.0333C64.2699 37.2645 63.7754 35.1831 63.7754 32.7889C63.7754 30.3946 64.2699 28.3132 65.2585 26.5446C66.2476 24.7543 67.6467 23.3846 69.4569 22.4355C71.2666 21.4649 73.3498 20.9796 75.7065 20.9796C77.3062 20.9796 78.7158 21.1522 79.9365 21.4973C81.1781 21.8208 82.3142 22.3385 83.3453 23.0503V27.7416C82.4197 26.9651 81.3571 26.4043 80.1575 26.0592C78.9789 25.6925 77.6322 25.5092 76.1171 25.5092C74.7075 25.5092 73.4338 25.8112 72.2977 26.4151C71.1826 26.9975 70.2985 27.8387 69.6465 28.9387C68.9939 30.0387 68.6679 31.3221 68.6679 32.7889C68.6679 34.2772 68.9624 35.5821 69.5514 36.7037C70.162 37.8038 71.0141 38.6558 72.1082 39.2597C73.2023 39.8637 74.4654 40.1656 75.8961 40.1656C77.2007 40.1656 78.3368 39.9284 79.3049 39.4538V35.086H75.738V31.4623H83.9448V42.3657C81.8616 43.8324 79.1159 44.566 75.7065 44.566Z" fill="#81818B"/>
<path d="M85.0531 28.5505H89.6615V30.783C90.2721 30.028 91.1242 29.4564 92.2183 29.0682C93.3124 28.6583 94.5545 28.4535 95.9432 28.4535V32.1742C94.491 32.1742 93.2074 32.4006 92.0923 32.8536C90.9977 33.3066 90.2401 33.9968 89.8196 34.9243V44.0806H85.0531V28.5505Z" fill="#81818B"/>
<path d="M105.103 44.566C102.199 44.566 99.9154 43.8539 98.2532 42.4302C96.5905 40.9855 95.7595 38.9685 95.7595 36.3802C95.7595 33.8134 96.496 31.7859 97.9692 30.2976C99.4633 28.8093 101.589 28.0652 104.345 28.0652C106.155 28.0652 107.691 28.4103 108.954 29.1005C110.216 29.7907 111.174 30.7506 111.826 31.98C112.479 33.1879 112.805 34.5576 112.805 36.089V38.0626H100.305C100.641 40.047 102.451 41.0394 105.734 41.0394C106.702 41.0394 107.702 40.953 108.733 40.7803C109.764 40.6078 110.658 40.3705 111.416 40.0686V43.4983C110.679 43.8214 109.732 44.0806 108.575 44.2749C107.418 44.4686 106.26 44.566 105.103 44.566ZM108.291 34.8919C108.228 33.8566 107.849 33.0585 107.155 32.4977C106.46 31.9153 105.502 31.6241 104.282 31.6241C103.083 31.6241 102.136 31.9153 101.441 32.4977C100.747 33.0801 100.368 33.8781 100.305 34.8919H108.291Z" fill="#81818B"/>
<path d="M122.574 44.566C119.671 44.566 117.387 43.8539 115.725 42.4302C114.062 40.9855 113.231 38.9685 113.231 36.3802C113.231 33.8134 113.967 31.7859 115.441 30.2976C116.935 28.8093 119.06 28.0652 121.817 28.0652C123.626 28.0652 125.163 28.4103 126.426 29.1005C127.688 29.7907 128.645 30.7506 129.297 31.98C129.95 33.1879 130.276 34.5576 130.276 36.089V38.0626H117.776C118.113 40.047 119.923 41.0394 123.206 41.0394C124.174 41.0394 125.174 40.953 126.204 40.7803C127.235 40.6078 128.13 40.3705 128.887 40.0686V43.4983C128.151 43.8214 127.204 44.0806 126.047 44.2749C124.889 44.4686 123.732 44.566 122.574 44.566ZM125.763 34.8919C125.699 33.8566 125.321 33.0585 124.627 32.4977C123.931 31.9153 122.974 31.6241 121.754 31.6241C120.554 31.6241 119.608 31.9153 118.913 32.4977C118.218 33.0801 117.84 33.8781 117.776 34.8919H125.763Z" fill="#81818B"/>
<path d="M131.334 28.5505H135.942V30.4594C136.637 29.6613 137.458 29.0682 138.405 28.6799C139.373 28.2701 140.383 28.0652 141.435 28.0652C143.498 28.0652 145.034 28.6368 146.043 29.7799C147.075 30.9016 147.591 32.4222 147.591 34.3419V44.0806H142.824V34.8919C142.824 32.8859 141.919 31.883 140.109 31.883C139.31 31.883 138.563 32.0879 137.868 32.4977C137.174 32.8859 136.584 33.4683 136.1 34.2448V44.0806H131.334V28.5505Z" fill="#81818B"/>
<path d="M151.795 26.1563C151.059 26.1563 150.439 25.9082 149.934 25.4121C149.428 24.916 149.176 24.2905 149.176 23.5356C149.176 22.8022 149.428 22.1875 149.934 21.6914C150.439 21.1737 151.059 20.9149 151.795 20.9149C152.532 20.9149 153.153 21.1737 153.658 21.6914C154.163 22.1875 154.416 22.8022 154.416 23.5356C154.416 24.2905 154.163 24.916 153.658 25.4121C153.153 25.9082 152.532 26.1563 151.795 26.1563ZM149.397 28.5505H154.195V44.0806H149.397V28.5505Z" fill="#81818B"/>
<path d="M162.324 44.566C161.188 44.566 159.967 44.4362 158.662 44.1775C157.379 43.9403 156.369 43.5952 155.632 43.1423V39.3244C156.474 39.8421 157.484 40.2627 158.662 40.5862C159.841 40.9096 160.935 41.0714 161.945 41.0714C162.808 41.0714 163.439 40.996 163.839 40.8452C164.238 40.6941 164.438 40.4137 164.438 40.0039C164.438 39.6803 164.323 39.4215 164.091 39.2274C163.86 39.0117 163.502 38.8283 163.018 38.6774C162.555 38.5048 161.776 38.2567 160.682 37.9332C159.399 37.5449 158.388 37.1567 157.652 36.7685C156.937 36.3586 156.39 35.8518 156.011 35.2478C155.653 34.6439 155.474 33.8673 155.474 32.9183C155.474 31.3005 156.095 30.0927 157.337 29.2946C158.599 28.475 160.303 28.0652 162.45 28.0652C163.502 28.0652 164.586 28.1838 165.701 28.4211C166.837 28.6368 167.711 28.928 168.321 29.2946V33.0154C167.711 32.6055 166.911 32.2712 165.922 32.0124C164.954 31.7536 164.007 31.6241 163.081 31.6241C162.218 31.6241 161.545 31.7104 161.061 31.883C160.599 32.0555 160.366 32.3791 160.366 32.8536C160.366 33.2634 160.587 33.5762 161.03 33.7919C161.492 34.0076 162.345 34.2772 163.586 34.6008L164.218 34.7625C165.543 35.1292 166.574 35.539 167.311 35.992C168.047 36.4233 168.563 36.9518 168.858 37.5773C169.173 38.1813 169.331 38.947 169.331 39.8744C169.331 41.2981 168.731 42.4411 167.532 43.3041C166.333 44.145 164.596 44.566 162.324 44.566Z" fill="#81818B"/>
<path d="M170.433 20.1708H175.199V30.33C175.915 29.575 176.725 29.0142 177.63 28.6476C178.535 28.2593 179.503 28.0652 180.534 28.0652C182.596 28.0652 184.132 28.6368 185.142 29.78C186.173 30.9016 186.689 32.4222 186.689 34.3419V44.0806H181.923V34.8919C181.923 32.886 181.018 31.883 179.208 31.883C178.408 31.883 177.662 32.0879 176.967 32.4977C176.272 32.886 175.683 33.4683 175.199 34.2448V44.0806H170.433V20.1708Z" fill="#81818B"/>
<path fill-rule="evenodd" clip-rule="evenodd" d="M47.4972 24.7486C47.4972 28.8583 44.2471 32.19 40.2375 32.19C36.2279 32.19 32.9775 28.8583 32.9775 24.7486C32.9775 20.6388 36.2279 17.3071 40.2375 17.3071C44.2471 17.3071 47.4972 20.6388 47.4972 24.7486ZM23.3502 31.6492C31.2598 31.1027 38.1532 37.1727 38.7953 45.2971C38.8618 46.1389 38.8586 46.97 38.7907 47.7848C30.8812 48.3313 23.9877 42.2612 23.3456 34.1368C23.2792 33.2949 23.2823 32.4637 23.3502 31.6492ZM43.9083 47.5002C51.8346 46.8419 57.7563 39.7764 57.2234 31.6691C56.4285 31.5995 55.6179 31.5962 54.7963 31.6644C46.87 32.3225 40.9482 39.3883 41.4814 47.4955C42.2761 47.5653 43.0869 47.5685 43.9083 47.5002Z" fill="#81818B"/>
</svg>
