<svg width="210" height="65" viewBox="0 0 210 65" fill="none" xmlns="http://www.w3.org/2000/svg">
<path fill-rule="evenodd" clip-rule="evenodd" d="M29.4154 24.9705C32.1557 21.4682 36.5439 19.1993 41.4899 19.1993C46.4649 19.1993 50.8754 21.495 53.6125 25.0324C53.4959 25.1462 53.3899 25.2642 53.2938 25.382C52.7924 25.9988 52.4152 26.7934 52.113 27.6003C51.5044 29.2231 51.0402 31.3429 50.6105 33.3278L50.5722 33.5063C50.1434 35.4876 49.7448 37.3303 49.2629 38.6982C49.0464 39.3127 48.8411 39.7472 48.659 40.0254C48.469 39.7449 48.2534 39.3052 48.0253 38.6818C47.5098 37.2747 47.0763 35.3607 46.6167 33.317L46.6018 33.2501V33.25C46.1602 31.2871 45.6917 29.2043 45.1076 27.61C44.8142 26.8091 44.4542 26.0225 43.9832 25.4113C43.5211 24.8116 42.7517 24.1347 41.6266 24.1347C40.5085 24.1347 39.7356 24.8042 39.2667 25.3972C38.7867 26.0045 38.4125 26.7878 38.1042 27.5891C37.4834 29.2026 36.9758 31.3133 36.5034 33.301L36.4546 33.5063C35.9869 35.4753 35.5496 37.3162 35.0532 38.6867C34.8637 39.21 34.6849 39.6083 34.5231 39.8927C34.3649 39.6096 34.1905 39.214 34.0062 38.6951C33.53 37.3538 33.1128 35.5644 32.6648 33.6426L32.5864 33.3063C32.1222 31.3174 31.6185 29.2029 30.9889 27.5843C30.676 26.7801 30.2933 25.9928 29.7982 25.3828C29.686 25.2447 29.5586 25.1045 29.4154 24.9705ZM27.7569 27.6596C27.8874 27.9045 28.0254 28.208 28.1682 28.575C28.7132 29.976 29.175 31.8877 29.6505 33.9249L29.743 34.3219C30.1759 36.1807 30.6263 38.1144 31.1568 39.6083C31.4389 40.4028 31.7796 41.181 32.2178 41.7858C32.6322 42.3578 33.3756 43.0967 34.5186 43.0967C35.6584 43.0967 36.4036 42.3614 36.8208 41.792C37.2627 41.1886 37.609 40.4112 37.8968 39.6162C38.4486 38.0927 38.9184 36.1138 39.368 34.2199V34.2198L39.4368 33.9303C39.9212 31.8918 40.3876 29.9763 40.9286 28.5702C41.1793 27.9187 41.4139 27.4649 41.6182 27.1833C41.8118 27.4625 42.033 27.9091 42.2676 28.5493C42.7832 29.9566 43.2163 31.8705 43.676 33.9142L43.691 33.9811C44.1325 35.9441 44.601 38.027 45.1851 39.6211C45.4785 40.4223 45.8386 41.2089 46.3095 41.8199C46.7718 42.4198 47.541 43.0967 48.666 43.0967C49.797 43.0967 50.5634 42.4136 51.0202 41.8084C51.484 41.1943 51.8327 40.405 52.1144 39.6052C52.6559 38.0687 53.0864 36.0752 53.497 34.1788V34.1787L53.5558 33.9034C53.9978 31.8622 54.422 29.9558 54.946 28.559C55.0594 28.2551 55.1712 27.996 55.2778 27.7784C56.0805 29.5265 56.5257 31.4567 56.5257 33.4857C56.5257 41.3757 49.7942 47.7721 41.4899 47.7721C33.1857 47.7721 26.4539 41.3757 26.4539 33.4857C26.4539 31.4106 26.9195 29.4388 27.7569 27.6596ZM41.4899 16.342C31.5249 16.342 23.4467 24.0175 23.4467 33.4857C23.4467 42.9538 31.5249 50.6292 41.4899 50.6292C51.4551 50.6292 59.5329 42.9538 59.5329 33.4857C59.5329 24.0175 51.4551 16.342 41.4899 16.342ZM41.8336 26.9442C41.8336 26.9445 41.8301 26.9472 41.8231 26.9511C41.8301 26.9458 41.8336 26.9438 41.8336 26.9442ZM41.418 26.9461C41.411 26.9421 41.4075 26.9393 41.4075 26.9389C41.4075 26.9385 41.4111 26.9406 41.418 26.9461ZM48.4373 40.2966C48.4373 40.2966 48.4406 40.2935 48.4471 40.2896C48.4406 40.2949 48.4373 40.2971 48.4373 40.2966ZM48.8746 40.2851C48.8815 40.2891 48.8853 40.2918 48.8853 40.2922C48.8853 40.2926 48.8815 40.2904 48.8746 40.2851ZM34.2105 40.3223C34.2104 40.3218 34.2148 40.3178 34.2234 40.3121C34.2148 40.3196 34.2105 40.3227 34.2105 40.3223ZM34.8195 40.3148C34.8281 40.3205 34.8324 40.3245 34.8324 40.3249C34.8323 40.3254 34.828 40.3227 34.8195 40.3148Z" fill="#81818B"/>
<path d="M69.4958 43.6351L65.1205 29.4144H68.953L71.5481 39.6498L74.5652 29.4144H78.8503L81.868 39.6498L84.493 29.4144H88.3255L83.9197 43.6351H79.9066L76.7078 32.9982L73.5095 43.6351H69.4958Z" fill="#81818B"/>
<path d="M93.9488 43.9793C92.6615 43.9793 91.6052 43.7877 90.7804 43.4055C89.9562 43.0042 89.3424 42.4786 88.9398 41.8287C88.5376 41.1788 88.3365 40.4621 88.3365 39.6785C88.3365 38.3597 88.8794 37.2893 89.9656 36.4674C91.0519 35.6455 92.682 35.2346 94.8544 35.2346H98.6565V34.8905C98.6565 33.9157 98.3646 33.199 97.7813 32.7402C97.198 32.2815 96.4735 32.0522 95.6089 32.0522C94.824 32.0522 94.1399 32.2337 93.5566 32.5969C92.9734 32.9409 92.6111 33.457 92.4704 34.1451H88.6983C88.7991 33.113 89.1613 32.2146 89.7845 31.45C90.4287 30.6855 91.2535 30.1025 92.2588 29.7012C93.2653 29.2807 94.3914 29.0704 95.6388 29.0704C97.7713 29.0704 99.4508 29.5769 100.678 30.5899C101.905 31.603 102.519 33.0366 102.519 34.8905V43.6351H99.2292L98.8675 41.3416C98.425 42.1061 97.8012 42.7366 96.9969 43.2338C96.2121 43.7306 95.1962 43.9793 93.9488 43.9793ZM94.824 41.112C95.9307 41.112 96.7854 40.7678 97.3886 40.0798C98.0123 39.3919 98.405 38.5411 98.5662 37.5282H95.2765C94.2507 37.5282 93.5167 37.7098 93.0736 38.0729C92.6316 38.4168 92.41 38.8472 92.41 39.3631C92.41 39.9175 92.6316 40.3475 93.0736 40.6532C93.5167 40.9589 94.0995 41.112 94.824 41.112Z" fill="#81818B"/>
<path d="M108.599 43.6351L103.107 29.4144H107.15L110.952 40.1661L114.755 29.4144H118.798L113.276 43.6351H108.599Z" fill="#81818B"/>
<path d="M126.562 43.9793C125.054 43.9793 123.716 43.6732 122.549 43.0617C121.383 42.4498 120.468 41.5898 119.803 40.4811C119.139 39.3728 118.808 38.092 118.808 36.6394C118.808 35.1677 119.13 33.8584 119.773 32.7116C120.437 31.5648 121.342 30.676 122.489 30.0452C123.655 29.3954 125.023 29.0704 126.593 29.0704C128.061 29.0704 129.359 29.3762 130.486 29.9879C131.612 30.5995 132.487 31.4405 133.111 32.5109C133.754 33.5621 134.077 34.7376 134.077 36.0373C134.077 36.2476 134.066 36.4674 134.046 36.6967C134.046 36.9262 134.036 37.165 134.016 37.4135H122.64C122.72 38.5221 123.123 39.3919 123.847 40.0228C124.591 40.6532 125.487 40.9687 126.533 40.9687C127.317 40.9687 127.971 40.8063 128.494 40.4811C129.037 40.1373 129.439 39.6976 129.701 39.1622H133.623C133.342 40.0608 132.869 40.8828 132.205 41.6283C131.561 42.3543 130.757 42.9277 129.791 43.3484C128.846 43.7687 127.769 43.9793 126.562 43.9793ZM126.593 32.0522C125.648 32.0522 124.812 32.3102 124.088 32.8262C123.364 33.3232 122.901 34.0878 122.7 35.1199H130.153C130.093 34.1833 129.731 33.4379 129.067 32.8836C128.403 32.3293 127.579 32.0522 126.593 32.0522Z" fill="#81818B"/>
<path d="M136.118 43.635V22.9922H139.98V43.635H136.118Z" fill="#81818B"/>
<path d="M149.991 43.9793C148.483 43.9793 147.145 43.6732 145.978 43.0617C144.812 42.4498 143.897 41.5898 143.233 40.4811C142.568 39.3728 142.237 38.092 142.237 36.6394C142.237 35.1677 142.559 33.8584 143.202 32.7116C143.866 31.5648 144.771 30.676 145.918 30.0452C147.085 29.3954 148.453 29.0704 150.022 29.0704C151.49 29.0704 152.788 29.3762 153.915 29.9879C155.041 30.5995 155.917 31.4405 156.54 32.5109C157.183 33.5621 157.506 34.7376 157.506 36.0373C157.506 36.2476 157.495 36.4674 157.475 36.6967C157.475 36.9262 157.465 37.165 157.445 37.4135H146.069C146.149 38.5221 146.552 39.3919 147.276 40.0228C148.02 40.6532 148.916 40.9687 149.962 40.9687C150.746 40.9687 151.4 40.8063 151.923 40.4811C152.466 40.1373 152.868 39.6976 153.13 39.1622H157.053C156.771 40.0608 156.298 40.8828 155.635 41.6283C154.99 42.3543 154.186 42.9277 153.22 43.3484C152.275 43.7687 151.199 43.9793 149.991 43.9793ZM150.022 32.0522C149.077 32.0522 148.242 32.3102 147.517 32.8262C146.793 33.3232 146.331 34.0878 146.129 35.1199H153.582C153.522 34.1833 153.16 33.4379 152.496 32.8836C151.832 32.3293 151.008 32.0522 150.022 32.0522Z" fill="#81818B"/>
<path d="M165.733 43.9793C164.405 43.9793 163.238 43.7784 162.233 43.3772C161.226 42.9564 160.422 42.3831 159.818 41.6566C159.215 40.9306 158.853 40.0896 158.732 39.134H162.625C162.745 39.6878 163.068 40.1661 163.591 40.5674C164.133 40.9496 164.827 41.1408 165.672 41.1408C166.517 41.1408 167.131 40.9784 167.513 40.6532C167.915 40.3285 168.117 39.9555 168.117 39.5352C168.117 38.9234 167.835 38.5124 167.272 38.3022C166.709 38.0729 165.924 37.8532 164.918 37.6429C164.275 37.5091 163.621 37.3466 162.957 37.1555C162.293 36.9644 161.68 36.7254 161.116 36.4388C160.573 36.1329 160.13 35.7506 159.788 35.2919C159.446 34.814 159.276 34.2311 159.276 33.543C159.276 32.2815 159.798 31.2207 160.845 30.3606C161.911 29.5005 163.399 29.0704 165.31 29.0704C167.081 29.0704 168.489 29.4622 169.535 30.2459C170.601 31.0296 171.235 32.1095 171.436 33.4857H167.785C167.563 32.4344 166.728 31.9088 165.281 31.9088C164.556 31.9088 163.993 32.0426 163.591 32.3102C163.208 32.5778 163.017 32.9122 163.017 33.3136C163.017 33.7342 163.309 34.0686 163.892 34.3171C164.476 34.5656 165.25 34.7949 166.216 35.0052C167.261 35.2346 168.217 35.4926 169.082 35.7793C169.967 36.0469 170.671 36.4579 171.195 37.0122C171.718 37.5473 171.979 38.3212 171.979 39.3343C171.999 40.2139 171.757 41.0067 171.255 41.7141C170.752 42.4211 170.028 42.9754 169.082 43.3772C168.137 43.7784 167.02 43.9793 165.733 43.9793Z" fill="#81818B"/>
<path d="M180.379 43.9793C179.052 43.9793 177.885 43.7784 176.879 43.3772C175.873 42.9564 175.069 42.3831 174.465 41.6566C173.862 40.9306 173.499 40.0896 173.379 39.134H177.272C177.392 39.6878 177.714 40.1661 178.237 40.5674C178.78 40.9496 179.474 41.1408 180.319 41.1408C181.164 41.1408 181.778 40.9784 182.16 40.6532C182.562 40.3285 182.764 39.9555 182.764 39.5352C182.764 38.9234 182.482 38.5124 181.918 38.3022C181.355 38.0729 180.571 37.8532 179.565 37.6429C178.921 37.5091 178.267 37.3466 177.603 37.1555C176.94 36.9644 176.326 36.7254 175.763 36.4388C175.22 36.1329 174.777 35.7506 174.435 35.2919C174.093 34.814 173.922 34.2311 173.922 33.543C173.922 32.2815 174.445 31.2207 175.491 30.3606C176.558 29.5005 178.046 29.0704 179.957 29.0704C181.727 29.0704 183.135 29.4622 184.182 30.2459C185.247 31.0296 185.881 32.1095 186.083 33.4857H182.431C182.21 32.4344 181.375 31.9088 179.927 31.9088C179.202 31.9088 178.639 32.0426 178.237 32.3102C177.855 32.5778 177.664 32.9122 177.664 33.3136C177.664 33.7342 177.955 34.0686 178.539 34.3171C179.122 34.5656 179.896 34.7949 180.862 35.0052C181.908 35.2346 182.864 35.4926 183.729 35.7793C184.614 36.0469 185.318 36.4579 185.841 37.0122C186.364 37.5473 186.626 38.3212 186.626 39.3343C186.646 40.2139 186.404 41.0067 185.901 41.7141C185.398 42.4211 184.675 42.9754 183.729 43.3772C182.783 43.7784 181.667 43.9793 180.379 43.9793Z" fill="#81818B"/>
</svg>
