<svg width="20" height="18" viewBox="0 0 20 18" fill="none" xmlns="http://www.w3.org/2000/svg">
<path fill-rule="evenodd" clip-rule="evenodd" d="M9.8125 14.0551L4.04485 17.8345L5.85693 11.1812L0.480255 6.86377L7.36782 6.53118L9.8125 0.0834961L12.2572 6.53118L19.1447 6.86377L13.7681 11.1812L15.5801 17.8345L9.8125 14.0551Z" fill="black"/>
<path d="M9.88101 13.9506L9.8125 13.9057L9.74399 13.9506L4.2521 17.5492L5.97753 11.2141L5.99906 11.1351L5.93519 11.0838L0.815581 6.97272L7.37385 6.65604L7.45566 6.65209L7.4847 6.5755L9.8125 0.436077L12.1403 6.5755L12.1693 6.65209L12.2511 6.65604L18.8094 6.97272L13.6898 11.0838L13.6259 11.1351L13.6475 11.2141L15.3729 17.5492L9.88101 13.9506Z" stroke="#81818B" stroke-opacity="0.8" stroke-width="0.25"/>
</svg>
